<svg width="30" height="30" viewBox="0 0 30 30" fill="none" xmlns="http://www.w3.org/2000/svg">
<path d="M15.0095 0.638319L15.0095 0.638331L27.5039 12.0916C27.6375 12.2282 27.698 12.3819 27.6979 12.495V12.4953V28.9581C27.6979 29.2723 27.4703 29.5 27.156 29.5H18.4731C18.1589 29.5 17.9312 29.2724 17.9312 28.9581V21.3171V20.8171H17.4312H12.5688H12.0688V21.3171V28.958C12.0688 29.2723 11.8412 29.4999 11.5269 29.4999H2.84398C2.52971 29.4999 2.30206 29.2723 2.30206 28.958V12.4952C2.30206 12.3305 2.36492 12.2082 2.4347 12.15L2.44927 12.1379L2.46288 12.1247L14.2717 0.663247L14.2717 0.663287L14.2769 0.65804C14.4777 0.457292 14.7983 0.444732 15.0095 0.638319Z" stroke="#242424"/>
</svg>
