<svg width="512" height="512" viewBox="0 0 512 512" fill="none" xmlns="http://www.w3.org/2000/svg">
<path d="M373.406 0H138.594C62.1719 0 0 62.1719 0 138.594V373.41C0 449.828 62.1719 512 138.594 512H373.41C449.828 512 512 449.828 512 373.41V138.594C512 62.1719 449.828 0 373.406 0V0ZM256 395.996C178.805 395.996 116.004 333.195 116.004 256C116.004 178.805 178.805 116.004 256 116.004C333.195 116.004 395.996 178.805 395.996 256C395.996 333.195 333.195 395.996 256 395.996V395.996ZM399.344 149.02C376.531 149.02 357.977 130.465 357.977 107.652C357.977 84.8398 376.531 66.2812 399.344 66.2812C422.156 66.2812 440.715 84.8398 440.715 107.652C440.715 130.465 422.156 149.02 399.344 149.02Z" fill="#9E1809"/>
<path d="M256 146.02C195.359 146.02 146.02 195.355 146.02 256C146.02 316.641 195.359 365.98 256 365.98C316.645 365.98 365.98 316.641 365.98 256C365.98 195.355 316.645 146.02 256 146.02V146.02Z" fill="#9E1809"/>
<path d="M399.344 96.3008C393.086 96.3008 387.992 101.395 387.992 107.652C387.992 113.91 393.086 119.004 399.344 119.004C405.605 119.004 410.699 113.914 410.699 107.652C410.699 101.391 405.605 96.3008 399.344 96.3008Z" fill="#9E1809"/>
</svg>
