<svg width="200" height="47" viewBox="0 0 200 47" fill="none" xmlns="http://www.w3.org/2000/svg">
<g clip-path="url(#clip0)">
<path d="M8.512 31.196C7.20533 31.196 6.02933 30.972 4.984 30.524C3.93867 30.0573 3.11733 29.404 2.52 28.564C1.92267 27.724 1.624 26.744 1.624 25.624H5.04C5.11467 26.464 5.44133 27.1547 6.02 27.696C6.61733 28.2373 7.448 28.508 8.512 28.508C9.61333 28.508 10.472 28.2467 11.088 27.724C11.704 27.1827 12.012 26.492 12.012 25.652C12.012 24.9987 11.816 24.4667 11.424 24.056C11.0507 23.6453 10.5747 23.328 9.996 23.104C9.436 22.88 8.652 22.6373 7.644 22.376C6.37467 22.04 5.33867 21.704 4.536 21.368C3.752 21.0133 3.08 20.472 2.52 19.744C1.96 19.016 1.68 18.0453 1.68 16.832C1.68 15.712 1.96 14.732 2.52 13.892C3.08 13.052 3.864 12.408 4.872 11.96C5.88 11.512 7.04667 11.288 8.372 11.288C10.2573 11.288 11.7973 11.764 12.992 12.716C14.2053 13.6493 14.8773 14.9373 15.008 16.58H11.48C11.424 15.8707 11.088 15.264 10.472 14.76C9.856 14.256 9.044 14.004 8.036 14.004C7.12133 14.004 6.37467 14.2373 5.796 14.704C5.21733 15.1707 4.928 15.8427 4.928 16.72C4.928 17.3173 5.10533 17.812 5.46 18.204C5.83333 18.5773 6.3 18.876 6.86 19.1C7.42 19.324 8.18533 19.5667 9.156 19.828C10.444 20.1827 11.4893 20.5373 12.292 20.892C13.1133 21.2467 13.804 21.7973 14.364 22.544C14.9427 23.272 15.232 24.252 15.232 25.484C15.232 26.4733 14.9613 27.4067 14.42 28.284C13.8973 29.1613 13.1227 29.8707 12.096 30.412C11.088 30.9347 9.89333 31.196 8.512 31.196ZM29.7224 31L22.1904 22.292V31H18.9984V11.54H22.1904V20.416L29.7504 11.54H33.7544L25.2984 21.284L33.8944 31H29.7224ZM48.4492 27.024H40.3012L38.9012 31H35.5692L42.5412 11.512H46.2372L53.2092 31H49.8492L48.4492 27.024ZM47.5532 24.42L44.3892 15.376L41.1972 24.42H47.5532ZM68.8126 11.54V14.144H63.6326V31H60.4406V14.144H55.2326V11.54H68.8126ZM75.2373 14.116V19.828H81.9573V22.432H75.2373V28.396H82.7973V31H72.0453V11.512H82.7973V14.116H75.2373ZM85.6649 21.228C85.6649 19.324 86.1036 17.616 86.9809 16.104C87.8769 14.592 89.0809 13.416 90.5929 12.576C92.1236 11.7173 93.7942 11.288 95.6049 11.288C97.6769 11.288 99.5156 11.8013 101.121 12.828C102.745 13.836 103.921 15.2733 104.649 17.14H100.813C100.309 16.1133 99.6089 15.348 98.7129 14.844C97.8169 14.34 96.7809 14.088 95.6049 14.088C94.3169 14.088 93.1689 14.3773 92.1609 14.956C91.1529 15.5347 90.3596 16.3653 89.7809 17.448C89.2209 18.5307 88.9409 19.7907 88.9409 21.228C88.9409 22.6653 89.2209 23.9253 89.7809 25.008C90.3596 26.0907 91.1529 26.9307 92.1609 27.528C93.1689 28.1067 94.3169 28.396 95.6049 28.396C96.7809 28.396 97.8169 28.144 98.7129 27.64C99.6089 27.136 100.309 26.3707 100.813 25.344H104.649C103.921 27.2107 102.745 28.648 101.121 29.656C99.5156 30.664 97.6769 31.168 95.6049 31.168C93.7756 31.168 92.1049 30.748 90.5929 29.908C89.0809 29.0493 87.8769 27.864 86.9809 26.352C86.1036 24.84 85.6649 23.132 85.6649 21.228ZM120.117 27.024H111.969L110.569 31H107.237L114.209 11.512H117.905L124.877 31H121.517L120.117 27.024ZM119.221 24.42L116.057 15.376L112.865 24.42H119.221ZM148.405 11.54V31H145.213V17.672L139.277 31H137.065L131.101 17.672V31H127.909V11.54H131.353L138.185 26.8L144.989 11.54H148.405ZM166.208 17.336C166.208 18.3253 165.975 19.2587 165.508 20.136C165.041 21.0133 164.295 21.732 163.268 22.292C162.241 22.8333 160.925 23.104 159.32 23.104H155.792V31H152.6V11.54H159.32C160.813 11.54 162.073 11.8013 163.1 12.324C164.145 12.828 164.92 13.5187 165.424 14.396C165.947 15.2733 166.208 16.2533 166.208 17.336ZM159.32 20.5C160.533 20.5 161.439 20.2293 162.036 19.688C162.633 19.128 162.932 18.344 162.932 17.336C162.932 15.208 161.728 14.144 159.32 14.144H155.792V20.5H159.32Z" fill="white"/>
<path d="M36.5 47H199.5" stroke="white" stroke-width="1.5"/>
</g>
<defs>
<clipPath id="clip0">
<rect width="199.5" height="47" fill="white"/>
</clipPath>
</defs>
</svg>
